<?xml version="1.0" standalone="no"?>
<!DOCTYPE svg PUBLIC "-//W3C//DTD SVG 1.1//EN" "http://www.w3.org/Graphics/SVG/1.1/DTD/svg11.dtd">

<svg t="1582188206319" class = "icon" viewBox="0 0 1024 1024" version="1.1" xmlns="http://www.w3.org/2000/svg" p-id="8527">
    <path d="M859 528.4H166.9c-18.1 0-32.8-14.7-32.8-32.8 0-18.1 14.7-32.8 32.8-32.8H859c18.1 0 32.8 14.7 32.8 32.8-0.1 18.1-14.7 32.8-32.8 32.8z" fill="#2196f3" p-id="8528"></path>
    <path d="M512.9 912.9c-18.1 0-32.8-14.7-32.8-32.8v-769c0-18.1 14.7-32.8 32.8-32.8 18.1 0 32.8 14.7 32.8 32.8v769c0 18.1-14.7 32.8-32.8 32.8z" fill="#2196f3" p-id="8529"></path>
    <path d="M407.1 247.4c-5.9 0-11.9-2-16.8-6.1-11.1-9.3-12.7-25.8-3.4-36.9L494.1 75.7c9.3-11.1 25.8-12.7 36.9-3.4 11.1 9.3 12.7 25.8 3.4 36.9L427.3 238c-5.2 6.2-12.7 9.4-20.2 9.4z" fill="#2196f3" p-id="8530"></path>
    <path d="M618.8 250.6c-8.1 0-16-3.7-21.2-10.7l-99.1-135.1c-8.6-11.7-6-28.1 5.6-36.7 11.7-8.6 28.1-6 36.7 5.6l99.1 135.1c8.6 11.7 6 28.1-5.6 36.7-4.7 3.4-10.2 5.1-15.5 5.1z" fill="#2196f3" p-id="8531"></path>
    <path d="M514.3 957.4c-7.5 0-15-3.2-20.2-9.5L386.9 819.2c-9.3-11.1-7.8-27.7 3.4-36.9 11.1-9.3 27.7-7.8 36.9 3.4l107.1 128.7c9.3 11.1 7.8 27.7-3.4 36.9-4.8 4.1-10.7 6.1-16.6 6.1z" fill="#2196f3" p-id="8532"></path>
    <path d="M519.7 960.6c-5.4 0-10.8-1.7-15.5-5.1-11.7-8.6-14.2-25-5.6-36.7l99.1-135.1c8.6-11.7 25-14.2 36.7-5.6 11.7 8.6 14.2 25 5.6 36.7l-99.1 135.1c-5.2 6.9-13.2 10.7-21.2 10.7z" fill="#2196f3" p-id="8533"></path>
    <path d="M218.7 629.5c-5.9 0-11.9-2-16.8-6.1L73.2 516.3c-11.1-9.3-12.7-25.8-3.4-36.9 9.3-11.1 25.8-12.7 36.9-3.4l128.7 107.1c11.1 9.3 12.7 25.8 3.4 36.9-5.1 6.3-12.6 9.5-20.1 9.5z" fill="#2196f3" p-id="8534"></path>
    <path d="M86.8 516.9c-8.1 0-16-3.7-21.2-10.7-8.6-11.7-6-28.1 5.6-36.7l135.1-99.1c11.7-8.6 28.1-6 36.7 5.6 8.6 11.7 6 28.1-5.6 36.7l-135.1 99.1c-4.6 3.5-10.1 5.1-15.5 5.1z" fill="#2196f3" p-id="8535"></path>
    <path d="M800 629.5c-7.5 0-15-3.2-20.2-9.5-9.3-11.1-7.8-27.7 3.4-36.9L911.9 476c11.1-9.3 27.7-7.8 36.9 3.4 9.3 11.1 7.8 27.7-3.4 36.9L816.7 623.4c-4.9 4.1-10.8 6.1-16.7 6.1z" fill="#2196f3" p-id="8536"></path>
    <path d="M931.8 516.9c-5.4 0-10.8-1.7-15.5-5.1l-135.1-99.1c-11.7-8.6-14.2-25-5.6-36.7 8.6-11.7 25-14.2 36.7-5.6l135.1 99.1c11.7 8.6 14.2 25 5.6 36.7-5.1 7-13.1 10.7-21.2 10.7z" fill="#2196f3" p-id="8537"></path>
</svg>